<?xml version="1.0" encoding="UTF-8" standalone="no"?>
<svg
   xmlns:dc="http://purl.org/dc/elements/1.1/"
   xmlns:cc="http://creativecommons.org/ns#"
   xmlns:rdf="http://www.w3.org/1999/02/22-rdf-syntax-ns#"
   xmlns:svg="http://www.w3.org/2000/svg"
   xmlns="http://www.w3.org/2000/svg"
   xmlns:sodipodi="http://sodipodi.sourceforge.net/DTD/sodipodi-0.dtd"
   xmlns:inkscape="http://www.inkscape.org/namespaces/inkscape"
   inkscape:version="1.0 (4035a4f, 2020-05-01)"
   height="90"
   width="90"
   sodipodi:docname="icon-only.svg"
   id="svg19"
   version="1.1"
   class="iconLeftSlogan"
   viewBox="0 0 90 90"
   data-v-423bf9ae="">
  <metadata
     id="metadata25">
    <rdf:RDF>
      <cc:Work
         rdf:about="">
        <dc:format>image/svg+xml</dc:format>
        <dc:type
           rdf:resource="http://purl.org/dc/dcmitype/StillImage" />
        <dc:title></dc:title>
      </cc:Work>
    </rdf:RDF>
  </metadata>
  <defs
     id="defs23" />
  <sodipodi:namedview
     inkscape:current-layer="svg19"
     inkscape:window-maximized="0"
     inkscape:window-y="0"
     inkscape:window-x="0"
     inkscape:cy="45"
     inkscape:cx="155"
     inkscape:zoom="2.2516129"
     showgrid="false"
     id="namedview21"
     inkscape:window-height="1440"
     inkscape:window-width="2560"
     inkscape:pageshadow="2"
     inkscape:pageopacity="0"
     guidetolerance="10"
     gridtolerance="10"
     objecttolerance="10"
     borderopacity="1"
     bordercolor="#666666"
     pagecolor="#ffffff" />
  <!---->
  <!---->
  <!---->
  <!---->
  <g
     fill="#f69800"
     stroke="none"
     transform="matrix(1.8367348,0,0,1.8367348,-13.275515,-13.275511)"
     id="2445967b-c928-4fa4-ad5e-7e73cc6fa6cc"
     data-v-423bf9ae="">
    <path
       id="path13"
       data-name="24. Geology"
       d="M 32,7.5 A 24.5,24.5 0 1 0 56.5,32 24.528,24.528 0 0 0 32,7.5 Z m 0.5,21.036 a 3.5,3.5 0 0 1 0,6.928 z M 14,37.5 a 12.001,12.001 0 0 0 -4.58,1.028 23.57,23.57 0 0 1 1.241,-16.383 9.32,9.32 0 0 0 2.982,4.15 c 0.997,0.93 1.857,1.732 1.857,2.705 0,1.932 1.41,2.794 2.541,3.488 0.904,0.553 1.459,0.923 1.459,1.512 0,1.686 -1.72,3.5 -5.5,3.5 z m 9,-13 c -1.718,0 -2.5,-1.814 -2.5,-3.5 0,-1.723 0.88,-5.5 3.5,-5.5 a 3.172,3.172 0 0 1 3.5,3.5 c 0,0.977 -0.543,1.295 -1.501,1.775 a 4.989,4.989 0 0 0 -1.353,0.871 2.929,2.929 0 0 0 -0.697,1.745 C 23.819,24.252 23.748,24.5 23,24.5 Z m 6.447,26.276 A 30.142,30.142 0 0 1 28.271,47.792 13.567,13.567 0 0 0 26.354,43.646 7.175,7.175 0 0 1 24.5,39 c 0,-1.508 0.635,-3.518 3.658,-4.526 A 6.264,6.264 0 0 0 31.5,31.01 v 22.088 a 6.62,6.62 0 0 1 -2.053,-2.32 z M 32.5,55.487 V 49.475 A 17.488,17.488 0 0 0 45.344,20.675 0.50013698,0.50013698 0 1 0 44.582,21.323 16.502,16.502 0 0 1 32.5,48.493 V 42.48 a 10.398,10.398 0 0 0 5.8,-2.081 0.5,0.5 0 0 0 -0.6,-0.8 9.404,9.404 0 0 1 -5.2,1.888 V 36.45 a 4.475,4.475 0 0 0 0,-8.898 v -5.038 a 9.501,9.501 0 0 1 7.729,14.237 0.5,0.5 0 0 0 0.865,0.5 A 10.49,10.49 0 0 0 32.5,21.526 V 15.508 A 16.455,16.455 0 0 1 40.735,18 0.500001,0.500001 0 1 0 41.265,17.152 17.436,17.436 0 0 0 32.5,14.518 V 8.513 a 23.492,23.492 0 0 1 0,46.974 z" />
  </g>
  <!---->
</svg>
