<?xml version="1.0" encoding="utf-8"?>
<!-- Generator: Adobe Illustrator 19.2.1, SVG Export Plug-In . SVG Version: 6.00 Build 0)  -->
<svg version="1.1" id="layer" xmlns="http://www.w3.org/2000/svg" xmlns:xlink="http://www.w3.org/1999/xlink" x="0px" y="0px"
	 viewBox="0 0 652 652" style="enable-background:new 0 0 652 652;" xml:space="preserve">
<style type="text/css">
	.st0{fill:none;stroke:#231815;stroke-width:6.8392;stroke-miterlimit:2.613;}
	.st1{fill:none;stroke:#231815;stroke-width:3.4196;stroke-miterlimit:2.613;}
	.st2{fill:none;stroke:#231815;stroke-width:1.7142;stroke-miterlimit:2.613;}
	.st3{fill:#231815;}
	.st4{fill:none;stroke:#231815;stroke-width:1.7142;}
</style>
<g>
	<path class="st0" d="M320,70.6c233,0,422,112,422,250s-189,250-422,250c-233,0-422-112-422-250S87,70.6,320,70.6z"/>
</g>
<g>
	<path class="st0" d="M320,143.9c194.2,0,351.6,79.2,351.6,176.8c0,97.6-157.5,176.8-351.6,176.8c-194.2,0-351.6-79.2-351.6-176.8
		C-31.6,223,125.9,143.9,320,143.9z"/>
	<path class="st0" d="M320,155.1c186.9,0,338.5,74.1,338.5,165.5c0,91.4-151.6,165.5-338.5,165.5c-186.9,0-338.5-74.1-338.5-165.5
		C-18.4,229.2,133.1,155.1,320,155.1z"/>
	<path class="st0" d="M315.2,212c137.6,0,249.1,55.8,249.1,124.6c0,68.8-111.6,124.6-249.1,124.6C177.6,461.2,66,405.4,66,336.6
		C66,267.8,177.6,212,315.2,212z"/>
	<path class="st0" d="M314.9,212c111.5,0,201.9,55.8,201.9,124.6c0,68.8-90.4,124.6-201.9,124.6c-111.5,0-201.9-55.8-201.9-124.6
		C113,267.8,203.4,212,314.9,212z"/>
	<path class="st0" d="M313.5,212c76.5,0,138.5,55.8,138.5,124.6c0,68.8-62,124.6-138.5,124.6C237,461.2,175,405.4,175,336.6
		C175,267.8,237,212,313.5,212z"/>
	<path class="st0" d="M116.5,412.7l162.3,2.7 M345.8,412.7l162.3,2.7"/>
	<path class="st0" d="M347,434.1l116.4,2.7 M156.4,432.8l123,2.3"/>
	<path class="st0" d="M298.3,177.9h33.8v11.9h-33.8V177.9z M306.6,171.2h16.9v6.4h-16.9V171.2z M303.9,190.3l21,0.6L350.5,485
		l-78.6-0.6L303.9,190.3z"/>
	<rect x="312.7" y="165.6" class="st0" width="4.6" height="3"/>
	<line class="st0" x1="305.1" y1="200" x2="324.1" y2="200"/>
	<line class="st0" x1="305.7" y1="200.3" x2="327.5" y2="227.2"/>
	<path class="st0" d="M302.2,228.2H327 M324.5,199.6l-22.3,27.9"/>
	<line class="st0" x1="303.3" y1="229.7" x2="328.7" y2="260.9"/>
	<line class="st0" x1="326.9" y1="228.8" x2="297.4" y2="261.2"/>
	<line class="st0" x1="292.2" y1="357.6" x2="341.6" y2="398.9"/>
	<line class="st0" x1="338.2" y1="356.4" x2="280.6" y2="399.3"/>
	<line class="st0" x1="281.8" y1="402.2" x2="346.6" y2="451.4"/>
	<line class="st0" x1="342" y1="401.6" x2="275.6" y2="446.6"/>
	<path class="st0" d="M277.8,448h69.8 M283.5,402.5h59.7"/>
	<line class="st0" x1="313" y1="448.1" x2="272.6" y2="478.2"/>
	<line class="st0" x1="313" y1="448.1" x2="349.8" y2="478.2"/>
	<path class="st0" d="M313.5,212c48,0,86.8,55.8,86.8,124.6c0,68.8-38.9,124.6-86.8,124.6c-48,0-86.8-55.8-86.8-124.6
		C226.6,267.8,265.5,212,313.5,212z"/>
	<line class="st0" x1="155.1" y1="241.6" x2="299.3" y2="244.3"/>
	<line class="st0" x1="113.8" y1="261.9" x2="289.8" y2="264.7"/>
	<line class="st0" x1="88.9" y1="285.6" x2="304.6" y2="287.5"/>
	<line class="st0" x1="343.5" y1="362.5" x2="558.4" y2="365.2"/>
	<path class="st0" d="M342.9,389l197,2.7 M85.9,385.6l197,2.7"/>
	<line class="st0" x1="341.3" y1="263.3" x2="517.4" y2="264.5"/>
	<line class="st0" x1="334.5" y1="243.6" x2="482.9" y2="244"/>
	<line class="st0" x1="298.2" y1="261" x2="331" y2="261"/>
	<line class="st0" x1="297.5" y1="260.7" x2="321.2" y2="285.2"/>
	<path class="st0" d="M84.3,288c0.2,0-35.7,6.1-44.2,13c-98.2,78.1,604.1-112.3,557,5.4c-1.4,5.7-9.4,16.6-7.2,27.9
		c2.2,11.1-28.7,22.2-27.6,21.6c155.9-88.4-487.3,37.6-515,19.5c-4.7-5.8-6.3-16.3-7.5-29.6C39.1,343.8-7.9,299.3,84.3,288z
		 M287.1,356.9h52.6 M328.7,260.7l-27.1,27.9"/>
	<line class="st0" x1="73.4" y1="308.6" x2="157.7" y2="309.8"/>
	<line class="st0" x1="381.9" y1="338.2" x2="565.6" y2="340"/>
	<path class="st1" d="M39,343.7c84.8,16.6,461.6-84.7,559.3-38.6"/>
	<path class="st1" d="M40.7,353.4c84,16.6,457.4-84.7,554.3-38.6"/>
	<path class="st1" d="M46.1,344.7l1,9.8 M50.5,344.7l1,9.8 M54.3,345.2l1,9.8 M58.1,345.2l1,9.8 M61.8,345.2l1,9.8 M65.5,345.2
		l1,9.8"/>
	<path class="st1" d="M69.7,345.3l1,9.7 M74.2,345l1,9.7 M78,345.3l1,9.7 M81.7,345l1,9.7 M85.4,344.8l1,9.7 M89.2,344.6l1,9.7"/>
	<path class="st1" d="M93.7,344l1,9.7 M98.1,343.5l1,9.7 M101.9,343.6l1,9.7 M105.7,343.2l1,9.7 M109.4,342.8l1,9.7 M113.2,342.4
		l1,9.7"/>
	<path class="st1" d="M148.6,338.3l1,9.6 M152.2,337.8l1,9.6 M156.1,337.8l1,9.6 M159.7,337l1,9.6 M163.2,335.9l1,9.6 M167.4,335.9
		l1,9.6 M171.1,335.2l1,9.6 M174.6,335l1,9.6 M178.6,334.6l1,9.6 M182.6,333.7l1,9.6 M186.6,333.2l1,9.6 M190.6,332.4l1,9.6
		 M194.6,331.8l1,9.6 M199,331.4l1,9.6 M203.3,330.4l1,9.6 M207.7,330l1,9.6 M212.3,329.4l1,9.6 M216.6,328.7l1,9.6 M221.3,327.8
		l1,9.6 M225.6,327.2l1,9.6 M229.6,326.5l1,9.6 M233.5,325.6l1,9.6 M237.5,325.6l1,9.6 M241.7,324.5l1,9.6 M245.9,324.1l1,9.6
		 M250.1,323.4l1,9.6 M254.3,322.7l1,9.6 M258,322.1l1,9.6 M262.7,321.6l1,9.6 M266.4,320.5l1,9.6 M270.8,320.1l1,9.6 M275.3,319.4
		l1,9.6 M280.1,318.6l1,9.6 M284.3,317.9l1,9.6 M288.5,317.2l1,9.6 M293.4,316.8l1,9.6 M297.8,316.1l1,9.6 M302,315.5l1,9.6
		 M306.6,314.6l1,9.6 M311,313.9l1,9.6 M315.4,313.3l1,9.6 M319.8,312.4l1,9.6 M324.7,311.9l1,9.6 M329.3,311.5l1,9.6 M333.7,310.4
		l1,9.6 M338.2,310l1,9.6 M342.6,309.3l1,9.6 M347,308.8l1,9.6 M351.6,308.8l1,9.6 M356,307.5l1,9.6 M360.5,306.6l1,9.6
		 M365.5,306.6l1,9.6 M370.2,305.8l1,9.6 M375.2,305.1l1,9.6 M380.5,304.6l1,9.6 M385.2,303.8l1,9.6 M389.8,302.7l1,9.6
		 M394.7,302.7l1,9.6 M399.7,302l1,9.6 M404.2,301.1l1,9.6 M409.4,300.6l1,9.6 M414.7,300l1,9.6 M419.4,299.2l1,9.6 M424.7,298.6
		l1,9.6 M430.3,298.1l1,9.6 M435.6,298.1l1,9.6 M440.9,296.9l1,9.6 M446.2,296.1l1,9.6 M451.2,296.1l1,9.6 M457,296.1l1,9.6
		 M462.6,295.6l1,9.6 M468.1,295l1,9.6 M473.4,294.4l1,9.6 M479.5,294.2l1,9.6 M485.1,294.4l1,9.6 M490.1,293.9l1,9.6 M495.9,293.3
		l1,9.6 M500.9,293.3l1,9.6 M506.8,293.6l1,9.6 M512.3,293.8l1,9.6 M517.6,293l1,9.6 M523.1,293.6l1,9.6 M528.6,293.6l1,9.6
		 M534.2,293.8l1,9.6 M540.3,294.1l1,9.6 M546.1,294.7l1,9.6 M552,294.9l1,9.6 M557.8,295.4l1,9.6 M563.9,295.8l1,9.6 M569.2,297.1
		l1,9.6 M575,298.2l1,9.6 M581.2,300l1,9.6 M585.8,301.3l1,9.6 M117.3,342l1,9.6 M121.8,341.3l1,9.6 M125.6,341.1l1,9.6
		 M129.3,340.5l1,9.6 M133,339.9l1,9.6 M136.8,339.3l1,9.6 M140.9,339.3l1,9.6 M144.7,338.7l1,9.6"/>
	<line class="st1" x1="591.1" y1="302" x2="592.1" y2="312.7"/>
	<path class="st0" d="M320,80.4c227.8,0,412.5,107.6,412.5,240.2S547.8,560.8,320,560.8c-227.8,0-412.5-107.6-412.5-240.2
		S92.2,80.4,320,80.4z"/>
	<path class="st2" d="M31.7,334.4l12.3,0.7l4.3,4.2l9.1,0.1l1.7-7.1l4.2-0.1l0.5-3.4h4.7l1.3-2.6h1.8l0.3,2.2l5.5,0.1l-0.1,2.5
		l2.9-0.3l-0.9,6.1h19.3l0.1-5.4l5.4,0.5l-1.3-3.6l3.7,1.1l0.4-3.2l3.7,0.4l-0.3,8.4h2.1l0.5-5.9l5.3,0.3l-0.1,2.9l20.6-0.1l0.1-5.4
		l2.2-0.4L141,318l2.5,0.1l0.1,9.7h2.4l0.1,4.5l4.3,0.1l-1.6-3.8l3.9,0.4l-0.7-9.2l2.4,0.5l0.1-5.1h2.8l-0.3,1.6h11v3.2l1.4-0.3
		l0.3,3.8l2.8-1.6l0.1,3.3l24.8-0.7l0.3-2.8h2.9l0.5-6l1.7,0.1l-0.1,6.8l6.2-0.8l0.8-6.6l2.6,0.3l-0.4,8.3l6.7-1.6v-5.3l4.6-0.1
		l0.8-4.7l4.9-0.3l0.3-4.2l4.3,1.3v6.2l2.2,0.1l0.1,2.4l2,0.3l0.1,2.2h4.7l0.4-2.6l6.7-0.5l-0.4-7.6l2.4,0.1v-2.8l4.6,0.5l0.3-2.9
		l6.4,0.8l0.7-3.4l6.4,0.4l-0.7,5.9l2.9,0.4l0.7-6.7l3.7,0.4l-0.3-2.8l5.3-0.1l0.3-2.2l3,0.7l-0.5,8.3h2.4l1.7-9.2l3.9,0.3l0.1,9.1
		l3.6-0.1l-1.3,2.2l5.9-0.4l-0.1-3.3l2.4,0.1v-4.6l5,0.3l-0.4,2.2l10.3,0.3l-0.5-3.3l4.2,0.8l0.4-3.2h2.2l0.3,6.3l3.4-0.1v2.5
		l7.1-0.5l-0.3-2.9l3,0.1l-0.5-5.8l7.1,0.8l-0.4-5.4l3.8,0.3l0.8,3.7l5.1,0.1l0.9,2.2l0.8,2.1l10-0.4l0.1-2.5l11.3,1l-1.3-6.2
		l2.8,0.3l0.1-9.5h3l1-5.3h4.3l-0.5,6.4l2.2-0.7l0.1,3.9l1.7,0.4l-0.3,4.6l3.4-0.1l-0.3,3.7l20.2-0.7l-1-12.8h3l-0.5-2.5l7.5,0.1
		l0.4-2l8.9-0.5l-0.1,4.2l2,0.1l0.5,6l2.8,0.4l-0.1-11.4l20.1,0.4v3.6l2.2,0.4v1.4l5-0.1v-2.9l2.1,0.4l-0.7-3.7l4.3,0.4v-1.7
		l9.1-0.7l0.3,6h2.8l-1.2,5.1h8.1l18.5-0.1l0.1-6.3h2.4v-4.5l11.8,0.7l0.4,3.4l3.2,1l-1.2,3.7l2.1,2.6l15.4-1.2v-5.6l3.7,0.5
		l0.3-3.3l2.5,0.4l-0.1-2.9l6.3,0.8l-0.7,6.2l4.1,0.1l0.3-6.6h5.5l-0.8,7.4l3.8-0.4l-1.6,4.3l2-0.3v3.3l11.6-1l-0.1,2.4l3,0.1
		l-1.1-8l3-0.5l1.4,4.3l6.8-0.1l-2.1,3.7l3.3,1.1l-3.5,2.4l4.7,2l3.8-2.4 M40.9,353.1l5.2,6.4l8-0.2l2-1.5l-0.5,4.2h2.2l-0.3,2.3
		h3.2l-0.5-5l7.3,1l-0.5,6.5l3.2-0.5l-1.7,5h4.8l0.5,4l9.7-0.5l-0.7-3.7l4.5-0.2l-1.2-12l19.2,0.3l-0.2,4.9h2.3l0.2,3.2h3.2
		l-0.2-6.5h3.3v3.5l4.3-0.3l-0.5,2.7l3.2,0.2l-0.5-8.5l9.5,1l0.2-4.2l14.5,1l-0.2,2.9l2.2,0.2l0.3-6l9.9,0.5l0.2,3.5l3.2-0.2
		l0.2,1.7h2.7l-0.7,3.2l3,4l35.4-5.9l-0.2-9.4l2.8,0.7l0.5,5.5l1.8-0.3v-4.9l4.5-3.2l-0.7-2.8l4.3-0.3v-2l8,0.2l1,3.8l3.5,0.2
		l0.2,1.5l3,0.2l-0.7-5.2l2.5-0.7l1.5,7.4l5.5-0.7l-1.7-9h3.3l0.2-4.2l4.3,0.5l-0.2,3l10-0.7l-0.3,3l2.3,0.2v4.5l3.2-0.2l-1.7,2.3
		l14-0.7l0.3-5.2h5.2l0.3-2.7l2.2-0.3l-0.7,5l1.8-2l0.7,3.7l6.8,0.5v-5l8.9,1.3l0.5-10.9l0.5-3.5l1.8-0.2l0.8,3.2l0.8-3.5l2-0.3
		l0.7,8.7l3.5-1.5l-1,4.5l1.2,2.2l14.7-1.2l-1.2-2.7l8.5,0.7l-0.5-2.5l2.3,0.2l-0.7-12.6l5.7,0.3l-0.7-4l3.7,0.5v4l0.8,2.2l12.7-0.3
		l0.2,2.7l2.7-2.5l-0.5-10.9l12.9,1l0.3,2.8l2.3,0.2l0.7-4l17.5,0.7v-2.8l19.7,0.8l0.2-3.3l5-0.3l-0.2,6.7l2.5-1l0.3,5.7l17-1.7
		l-0.7-6.7h2.5l0.2-3.3l1.8,0.3l0.3,5.5l5.5,0.5l-2,3.5l16-0.8l0.2-10.4l6.7,0.5l0.3,3l8-0.7l0.3,3.2l9,0.3l-0.3-8h2.3h3l-0.3-3h5.5
		v2.2l9.2,1.2l-0.3-3.5l3.8-0.3l0.7,3.7l18.5-0.3l0.3-3.2l13.2,0.7l-0.5,2.2l3.7-0.2v3.5l20.7-0.5l-0.8,2.7l3.8-2.5l7.7-0.7l0.7,3.7
		l2.5-1.2v3.2l3.3-0.3v-3.5l2,0.3l0.5,5.4l10.7-0.3"/>
	<path class="st3" d="M191,128.5l7.7-2c0.4,1.2,1,2.1,1.6,2.7c1,0.9,2.4,1.2,3.9,0.9c1.2-0.2,2-0.7,2.5-1.4c0.5-0.7,0.7-1.4,0.6-2.1
		c-0.1-0.7-0.6-1.2-1.3-1.7c-0.7-0.4-2.2-0.7-4.5-0.7c-3.7-0.1-6.5-0.7-8.3-1.7c-1.8-1-2.9-2.6-3.3-4.7c-0.3-1.4-0.1-2.7,0.4-4.1
		c0.6-1.4,1.6-2.5,3-3.6c1.4-1,3.5-1.8,6.3-2.3c3.4-0.7,6.1-0.5,8.1,0.4c2,0.9,3.5,2.7,4.3,5.4l-7.6,2c-0.4-1.2-1-1.9-1.8-2.3
		c-0.8-0.4-1.7-0.5-2.9-0.3c-1,0.2-1.6,0.5-2,1c-0.4,0.5-0.5,1-0.4,1.6c0.1,0.4,0.4,0.8,0.8,1c0.5,0.3,1.4,0.4,2.9,0.4
		c3.7,0.1,6.4,0.3,8.2,0.8c1.7,0.5,3,1.2,4,2.3c0.9,1,1.5,2.3,1.8,3.7c0.3,1.7,0.2,3.4-0.5,5c-0.7,1.6-1.8,3-3.3,4
		c-1.5,1.1-3.6,1.9-6.2,2.4c-4.5,0.9-7.8,0.6-9.9-0.8C193.2,133.2,191.7,131.1,191,128.5"/>
	<path class="st4" d="M191,128.5l7.7-2c0.4,1.2,1,2.1,1.6,2.7c1,0.9,2.4,1.2,3.9,0.9c1.2-0.2,2-0.7,2.5-1.4c0.5-0.7,0.7-1.4,0.6-2.1
		c-0.1-0.7-0.6-1.2-1.3-1.7c-0.7-0.4-2.2-0.7-4.5-0.7c-3.7-0.1-6.5-0.7-8.3-1.7c-1.8-1-2.9-2.6-3.3-4.7c-0.3-1.4-0.1-2.7,0.4-4.1
		c0.6-1.4,1.6-2.5,3-3.6c1.4-1,3.5-1.8,6.3-2.3c3.4-0.7,6.1-0.5,8.1,0.4c2,0.9,3.5,2.7,4.3,5.4l-7.6,2c-0.4-1.2-1-1.9-1.8-2.3
		c-0.8-0.4-1.7-0.5-2.9-0.3c-1,0.2-1.6,0.5-2,1c-0.4,0.5-0.5,1-0.4,1.6c0.1,0.4,0.4,0.8,0.8,1c0.5,0.3,1.4,0.4,2.9,0.4
		c3.7,0.1,6.4,0.3,8.2,0.8c1.7,0.5,3,1.2,4,2.3c0.9,1,1.5,2.3,1.8,3.7c0.3,1.7,0.2,3.4-0.5,5c-0.7,1.6-1.8,3-3.3,4
		c-1.5,1.1-3.6,1.9-6.2,2.4c-4.5,0.9-7.8,0.6-9.9-0.8C193.2,133.2,191.7,131.1,191,128.5z"/>
	<path class="st3" d="M217.6,118.8c-0.6-4.4,0.1-7.9,2.2-10.7c2.1-2.8,5.3-4.4,9.7-5.1c4.4-0.6,8,0.1,10.8,2.1
		c2.7,2.1,4.4,5.2,5,9.5c0.4,3.1,0.3,5.8-0.5,7.9c-0.8,2.1-2.1,3.9-3.9,5.3c-1.8,1.4-4.2,2.3-7.2,2.7c-3,0.4-5.6,0.3-7.7-0.4
		c-2.1-0.7-3.9-2-5.4-3.9C219,124.4,218,121.9,217.6,118.8 M225.8,117.6c0.4,2.7,1.1,4.6,2.3,5.6c1.2,1,2.6,1.4,4.3,1.2
		c1.8-0.2,3.1-1,3.9-2.3c0.8-1.3,1-3.4,0.6-6.4c-0.4-2.5-1.1-4.3-2.3-5.3c-1.2-1-2.6-1.4-4.4-1.2c-1.7,0.2-2.9,1-3.8,2.3
		C225.7,112.9,225.5,114.9,225.8,117.6"/>
	<path class="st4" d="M217.6,118.8c-0.6-4.4,0.1-7.9,2.2-10.7c2.1-2.8,5.3-4.4,9.7-5.1c4.4-0.6,8,0.1,10.8,2.1
		c2.7,2.1,4.4,5.2,5,9.5c0.4,3.1,0.3,5.8-0.5,7.9c-0.8,2.1-2.1,3.9-3.9,5.3c-1.8,1.4-4.2,2.3-7.2,2.7c-3,0.4-5.6,0.3-7.7-0.4
		c-2.1-0.7-3.9-2-5.4-3.9C219,124.4,218,121.9,217.6,118.8z M225.8,117.6c0.4,2.7,1.1,4.6,2.3,5.6c1.2,1,2.6,1.4,4.3,1.2
		c1.8-0.2,3.1-1,3.9-2.3c0.8-1.3,1-3.4,0.6-6.4c-0.4-2.5-1.1-4.3-2.3-5.3c-1.2-1-2.6-1.4-4.4-1.2c-1.7,0.2-2.9,1-3.8,2.3
		C225.7,112.9,225.5,114.9,225.8,117.6z"/>
	<path class="st3" d="M268.2,115.2l7.5,1.5c-0.3,2.1-0.9,3.9-1.8,5.3c-0.9,1.5-2.1,2.6-3.6,3.5c-1.5,0.8-3.4,1.4-5.9,1.6
		c-2.9,0.3-5.3,0.1-7.3-0.6c-1.9-0.7-3.7-2-5.2-4c-1.5-2-2.5-4.7-2.8-8c-0.4-4.4,0.5-8,2.6-10.6c2.1-2.6,5.4-4.1,9.7-4.5
		c3.4-0.3,6.1,0.1,8.2,1.3c2.1,1.2,3.7,3.2,4.9,5.9l-7.2,2.3c-0.3-0.8-0.6-1.4-1-1.7c-0.5-0.6-1.1-1-1.8-1.3
		c-0.7-0.3-1.5-0.4-2.3-0.3c-1.9,0.2-3.3,1.1-4.1,2.7c-0.7,1.2-0.9,3-0.7,5.4c0.3,3,0.9,5,1.9,6c1,1,2.3,1.5,4,1.3
		c1.6-0.1,2.8-0.7,3.5-1.7C267.5,118.3,268,117,268.2,115.2"/>
	<path class="st4" d="M268.2,115.2l7.5,1.5c-0.3,2.1-0.9,3.9-1.8,5.3c-0.9,1.5-2.1,2.6-3.6,3.5c-1.5,0.8-3.4,1.4-5.9,1.6
		c-2.9,0.3-5.3,0.1-7.3-0.6c-1.9-0.7-3.7-2-5.2-4c-1.5-2-2.5-4.7-2.8-8c-0.4-4.4,0.5-8,2.6-10.6c2.1-2.6,5.4-4.1,9.7-4.5
		c3.4-0.3,6.1,0.1,8.2,1.3c2.1,1.2,3.7,3.2,4.9,5.9l-7.2,2.3c-0.3-0.8-0.6-1.4-1-1.7c-0.5-0.6-1.1-1-1.8-1.3
		c-0.7-0.3-1.5-0.4-2.3-0.3c-1.9,0.2-3.3,1.1-4.1,2.7c-0.7,1.2-0.9,3-0.7,5.4c0.3,3,0.9,5,1.9,6c1,1,2.3,1.5,4,1.3
		c1.6-0.1,2.8-0.7,3.5-1.7C267.5,118.3,268,117,268.2,115.2z"/>
	<polygon class="st3" points="279,98.5 287.4,98 288.9,124.9 280.6,125.4 	"/>
	<polygon class="st4" points="279,98.5 287.4,98 288.9,124.9 280.6,125.4 	"/>
	<polygon class="st3" points="293.9,97.6 316.3,96.9 316.4,102.7 302.4,103.1 302.6,107.4 315.5,107 315.7,112.5 302.7,112.9 
		302.9,118.2 317.3,117.8 317.5,123.9 294.7,124.6 	"/>
	<polygon class="st4" points="293.9,97.6 316.3,96.9 316.4,102.7 302.4,103.1 302.6,107.4 315.5,107 315.7,112.5 302.7,112.9 
		302.9,118.2 317.3,117.8 317.5,123.9 294.7,124.6 	"/>
	<polygon class="st3" points="320,96.9 345.4,97.1 345.3,103.8 336.8,103.7 336.6,124 328.3,124 328.5,103.6 320,103.5 	"/>
	<polygon class="st4" points="320,96.9 345.4,97.1 345.3,103.8 336.8,103.7 336.6,124 328.3,124 328.5,103.6 320,103.5 	"/>
	<polygon class="st3" points="347.3,97.1 356.6,97.6 361.5,107 367.4,98.2 376.6,98.7 365.3,113.8 364.7,125.1 356.4,124.6 
		357,113.4 	"/>
	<polygon class="st4" points="347.3,97.1 356.6,97.6 361.5,107 367.4,98.2 376.6,98.7 365.3,113.8 364.7,125.1 356.4,124.6 
		357,113.4 	"/>
	<path class="st3" d="M390.5,113.5c0.6-4.4,2.2-7.6,4.9-9.8c2.7-2.1,6.3-2.9,10.6-2.4c4.5,0.6,7.7,2.2,9.9,4.9
		c2.1,2.7,2.9,6.2,2.3,10.5c-0.4,3.1-1.2,5.6-2.6,7.5c-1.3,1.9-3,3.2-5.2,4.1c-2.1,0.9-4.7,1.1-7.6,0.7c-3-0.4-5.5-1.2-7.3-2.4
		c-1.9-1.2-3.3-2.9-4.2-5.2C390.4,119.3,390.1,116.6,390.5,113.5 M398.8,114.6c-0.3,2.7-0.1,4.7,0.8,6c0.9,1.3,2.1,2.1,3.9,2.3
		c1.8,0.2,3.2-0.2,4.4-1.2c1.1-1,1.9-3,2.2-6c0.3-2.5,0-4.4-0.8-5.7c-0.9-1.3-2.2-2.1-3.9-2.3c-1.7-0.2-3.1,0.2-4.2,1.3
		C399.9,109.9,399.1,111.8,398.8,114.6"/>
	<path class="st4" d="M390.5,113.5c0.6-4.4,2.2-7.6,4.9-9.8c2.7-2.1,6.3-2.9,10.6-2.4c4.5,0.6,7.7,2.2,9.9,4.9
		c2.1,2.7,2.9,6.2,2.3,10.5c-0.4,3.1-1.2,5.6-2.6,7.5c-1.3,1.9-3,3.2-5.2,4.1c-2.1,0.9-4.7,1.1-7.6,0.7c-3-0.4-5.5-1.2-7.3-2.4
		c-1.9-1.2-3.3-2.9-4.2-5.2C390.4,119.3,390.1,116.6,390.5,113.5z M398.8,114.6c-0.3,2.7-0.1,4.7,0.8,6c0.9,1.3,2.1,2.1,3.9,2.3
		c1.8,0.2,3.2-0.2,4.4-1.2c1.1-1,1.9-3,2.2-6c0.3-2.5,0-4.4-0.8-5.7c-0.9-1.3-2.2-2.1-3.9-2.3c-1.7-0.2-3.1,0.2-4.2,1.3
		C399.9,109.9,399.1,111.8,398.8,114.6z"/>
	<polygon class="st3" points="425.5,104.5 445.8,108.3 444.8,114 432.7,111.8 431.8,116.4 442.1,118.3 441.1,123.7 430.9,121.8 
		428.8,132.6 420.6,131.1 	"/>
	<polygon class="st4" points="425.5,104.5 445.8,108.3 444.8,114 432.7,111.8 431.8,116.4 442.1,118.3 441.1,123.7 430.9,121.8 
		428.8,132.6 420.6,131.1 	"/>
	<path class="st3" d="M-54.2,313.3l2.4,13.7c0.5,3,0.2,5.3-1,7.1c-1.2,1.7-3,2.8-5.7,3.3c-2.7,0.5-4.9,0-6.7-1.3
		c-1.8-1.4-3-3.7-3.6-7l-0.8-4.5l-9.9,1.7l-1.4-8.3L-54.2,313.3z M-64.1,323.5l0.4,2c0.3,1.6,0.7,2.6,1.4,3.2
		c0.7,0.5,1.4,0.7,2.3,0.6c0.8-0.2,1.5-0.6,2-1.2c0.5-0.7,0.6-1.8,0.3-3.3l-0.4-2.3L-64.1,323.5z"/>
	<path class="st4" d="M-54.2,313.3l2.4,13.7c0.5,3,0.2,5.3-1,7.1c-1.2,1.7-3,2.8-5.7,3.3c-2.7,0.5-4.9,0-6.7-1.3
		c-1.8-1.4-3-3.7-3.6-7l-0.8-4.5l-9.9,1.7l-1.4-8.3L-54.2,313.3z M-64.1,323.5l0.4,2c0.3,1.6,0.7,2.6,1.4,3.2
		c0.7,0.5,1.4,0.7,2.3,0.6c0.8-0.2,1.5-0.6,2-1.2c0.5-0.7,0.6-1.8,0.3-3.3l-0.4-2.3L-64.1,323.5z"/>
	<polygon class="st3" points="-49.5,338.2 -41.8,359.2 -47.2,361.2 -52,348 -56,349.5 -51.5,361.7 -56.7,363.6 -61.2,351.4 
		-66.2,353.3 -61.2,366.8 -66.9,368.9 -74.8,347.6 	"/>
	<polygon class="st4" points="-49.5,338.2 -41.8,359.2 -47.2,361.2 -52,348 -56,349.5 -51.5,361.7 -56.7,363.6 -61.2,351.4 
		-66.2,353.3 -61.2,366.8 -66.9,368.9 -74.8,347.6 	"/>
	<polygon class="st3" points="-41.3,360.4 -28.6,382.3 -34.3,385.6 -38.6,378.3 -56.2,388.5 -60.4,381.2 -42.8,371.1 -47,363.7 	"/>
	<polygon class="st4" points="-41.3,360.4 -28.6,382.3 -34.3,385.6 -38.6,378.3 -56.2,388.5 -60.4,381.2 -42.8,371.1 -47,363.7 	"/>
	<path class="st3" d="M-48.1,401.1l21-17l8.8,10.8c1.6,2,2.7,3.7,3.2,5c0.5,1.3,0.6,2.7,0.2,4.1c-0.4,1.4-1.3,2.6-2.6,3.7
		c-1.2,1-2.4,1.5-3.6,1.7c-1.2,0.2-2.5,0.1-3.7-0.4c-0.8-0.3-1.7-0.8-2.7-1.6c0.4,1,0.6,1.7,0.6,2.3c0,0.4-0.1,1-0.3,1.9
		c-0.2,0.9-0.4,1.6-0.6,2l-3.5,8.1l-5.9-7.3l3.6-8.7c0.5-1.1,0.7-1.9,0.7-2.5c-0.1-0.7-0.3-1.4-0.8-2l-0.5-0.6l-8.5,6.9L-48.1,401.1
		z M-30.4,397.5l2.2,2.7c0.2,0.3,0.8,0.8,1.7,1.5c0.4,0.4,0.9,0.5,1.5,0.5c0.6,0,1.1-0.2,1.5-0.6c0.7-0.6,1-1.2,1-1.9
		c0-0.7-0.5-1.7-1.4-2.9l-2.3-2.8L-30.4,397.5z"/>
	<path class="st4" d="M-48.1,401.1l21-17l8.8,10.8c1.6,2,2.7,3.7,3.2,5c0.5,1.3,0.6,2.7,0.2,4.1c-0.4,1.4-1.3,2.6-2.6,3.7
		c-1.2,1-2.4,1.5-3.6,1.7c-1.2,0.2-2.5,0.1-3.7-0.4c-0.8-0.3-1.7-0.8-2.7-1.6c0.4,1,0.6,1.7,0.6,2.3c0,0.4-0.1,1-0.3,1.9
		c-0.2,0.9-0.4,1.6-0.6,2l-3.5,8.1l-5.9-7.3l3.6-8.7c0.5-1.1,0.7-1.9,0.7-2.5c-0.1-0.7-0.3-1.4-0.8-2l-0.5-0.6l-8.5,6.9L-48.1,401.1
		z M-30.4,397.5l2.2,2.7c0.2,0.3,0.8,0.8,1.7,1.5c0.4,0.4,0.9,0.5,1.5,0.5c0.6,0,1.1-0.2,1.5-0.6c0.7-0.6,1-1.2,1-1.9
		c0-0.7-0.5-1.7-1.4-2.9l-2.3-2.8L-30.4,397.5z"/>
	<path class="st3" d="M-19.9,414.2c3-3.2,6.2-4.9,9.7-5c3.5-0.1,6.8,1.3,10,4.3c3.3,3.1,5,6.3,5.1,9.7c0.1,3.4-1.3,6.7-4.2,9.9
		c-2.2,2.3-4.3,3.8-6.5,4.6c-2.1,0.8-4.3,0.9-6.6,0.3c-2.2-0.5-4.4-1.8-6.6-3.9c-2.2-2.1-3.7-4.1-4.5-6.2c-0.8-2.1-0.9-4.3-0.4-6.7
		C-23.4,418.9-22,416.5-19.9,414.2 M-13.8,420c-1.9,2-2.8,3.8-2.9,5.3c-0.1,1.6,0.5,2.9,1.8,4.1c1.3,1.2,2.7,1.7,4.2,1.6
		c1.5-0.2,3.3-1.4,5.4-3.6c1.7-1.9,2.6-3.6,2.7-5.1c0-1.6-0.6-2.9-1.9-4.1c-1.2-1.1-2.6-1.6-4.2-1.5
		C-10.2,416.9-11.9,417.9-13.8,420"/>
	<path class="st4" d="M-19.9,414.2c3-3.2,6.2-4.9,9.7-5c3.5-0.1,6.8,1.3,10,4.3c3.3,3.1,5,6.3,5.1,9.7c0.1,3.4-1.3,6.7-4.2,9.9
		c-2.2,2.3-4.3,3.8-6.5,4.6c-2.1,0.8-4.3,0.9-6.6,0.3c-2.2-0.5-4.4-1.8-6.6-3.9c-2.2-2.1-3.7-4.1-4.5-6.2c-0.8-2.1-0.9-4.3-0.4-6.7
		C-23.4,418.9-22,416.5-19.9,414.2z M-13.8,420c-1.9,2-2.8,3.8-2.9,5.3c-0.1,1.6,0.5,2.9,1.8,4.1c1.3,1.2,2.7,1.7,4.2,1.6
		c1.5-0.2,3.3-1.4,5.4-3.6c1.7-1.9,2.6-3.6,2.7-5.1c0-1.6-0.6-2.9-1.9-4.1c-1.2-1.1-2.6-1.6-4.2-1.5
		C-10.2,416.9-11.9,417.9-13.8,420z"/>
	<path class="st3" d="M12.5,425.4l11.1,8.3c2.4,1.8,3.8,3.7,4.2,5.8c0.4,2-0.3,4.1-1.8,6.3c-1.6,2.2-3.5,3.4-5.8,3.7
		c-2.2,0.3-4.7-0.6-7.4-2.6L9.1,444l-6,8l-6.7-5L12.5,425.4z M12.4,439.6l1.6,1.2c1.3,1,2.4,1.4,3.2,1.3c0.9-0.1,1.5-0.4,2.1-1.1
		c0.5-0.7,0.7-1.4,0.6-2.2c-0.1-0.8-0.8-1.7-2-2.6l-1.9-1.4L12.4,439.6z"/>
	<path class="st4" d="M12.5,425.4l11.1,8.3c2.4,1.8,3.8,3.7,4.2,5.8c0.4,2-0.3,4.1-1.8,6.3c-1.6,2.2-3.5,3.4-5.8,3.7
		c-2.2,0.3-4.7-0.6-7.4-2.6L9.1,444l-6,8l-6.7-5L12.5,425.4z M12.4,439.6l1.6,1.2c1.3,1,2.4,1.4,3.2,1.3c0.9-0.1,1.5-0.4,2.1-1.1
		c0.5-0.7,0.7-1.4,0.6-2.2c-0.1-0.8-0.8-1.7-2-2.6l-1.9-1.4L12.4,439.6z"/>
	<polygon class="st3" points="33.7,440.9 40.9,445.2 36,453.3 43.8,458 48.7,449.9 55.8,454.3 41.9,477.4 34.7,473 40.3,463.7 
		32.5,459 26.9,468.3 19.8,464 	"/>
	<polygon class="st4" points="33.7,440.9 40.9,445.2 36,453.3 43.8,458 48.7,449.9 55.8,454.3 41.9,477.4 34.7,473 40.3,463.7 
		32.5,459 26.9,468.3 19.8,464 	"/>
	<polygon class="st3" points="57.6,455.2 65.8,459.4 66.7,469.9 75.6,464.2 83.9,468.3 67.5,477.7 62.5,487.8 55,484.1 60,474 	"/>
	<polygon class="st4" points="57.6,455.2 65.8,459.4 66.7,469.9 75.6,464.2 83.9,468.3 67.5,477.7 62.5,487.8 55,484.1 60,474 	"/>
	<path class="st3" d="M75.9,484.4l7.5,2.6c-0.3,1.3-0.4,2.3-0.2,3.1c0.4,1.3,1.3,2.3,2.8,2.9c1.1,0.5,2.1,0.6,2.9,0.3
		c0.8-0.3,1.4-0.7,1.6-1.4c0.3-0.6,0.2-1.3-0.1-2.1c-0.4-0.7-1.5-1.8-3.3-3.1c-3.1-2.2-5-4.2-5.9-6c-0.9-1.9-1-3.8-0.2-5.7
		c0.5-1.3,1.4-2.3,2.6-3.2c1.2-0.8,2.7-1.3,4.5-1.3c1.8,0,3.9,0.5,6.5,1.6c3.2,1.3,5.4,2.9,6.5,4.8c1.2,1.9,1.4,4.2,0.6,6.9
		l-7.4-2.6c0.3-1.2,0.2-2.2-0.2-2.9c-0.4-0.8-1.1-1.4-2.2-1.8c-0.9-0.4-1.6-0.5-2.3-0.3c-0.6,0.2-1,0.6-1.3,1.1
		c-0.2,0.4-0.1,0.8,0.1,1.3c0.2,0.5,1,1.1,2.2,2c3.1,2.1,5.2,3.9,6.3,5.2c1.1,1.4,1.8,2.7,2,4.1c0.2,1.4,0,2.7-0.6,4.1
		c-0.7,1.6-1.7,2.9-3.2,3.9c-1.4,1-3.1,1.5-5,1.5c-1.9,0-4-0.5-6.4-1.5c-4.2-1.8-6.8-3.8-7.8-6.1C75.1,489.5,75.1,487,75.9,484.4"/>
	<path class="st4" d="M75.9,484.4l7.5,2.6c-0.3,1.3-0.4,2.3-0.2,3.1c0.4,1.3,1.3,2.3,2.8,2.9c1.1,0.5,2.1,0.6,2.9,0.3
		c0.8-0.3,1.4-0.7,1.6-1.4c0.3-0.6,0.2-1.3-0.1-2.1c-0.4-0.7-1.5-1.8-3.3-3.1c-3.1-2.2-5-4.2-5.9-6c-0.9-1.9-1-3.8-0.2-5.7
		c0.5-1.3,1.4-2.3,2.6-3.2c1.2-0.8,2.7-1.3,4.5-1.3c1.8,0,3.9,0.5,6.5,1.6c3.2,1.3,5.4,2.9,6.5,4.8c1.2,1.9,1.4,4.2,0.6,6.9
		l-7.4-2.6c0.3-1.2,0.2-2.2-0.2-2.9c-0.4-0.8-1.1-1.4-2.2-1.8c-0.9-0.4-1.6-0.5-2.3-0.3c-0.6,0.2-1,0.6-1.3,1.1
		c-0.2,0.4-0.1,0.8,0.1,1.3c0.2,0.5,1,1.1,2.2,2c3.1,2.1,5.2,3.9,6.3,5.2c1.1,1.4,1.8,2.7,2,4.1c0.2,1.4,0,2.7-0.6,4.1
		c-0.7,1.6-1.7,2.9-3.2,3.9c-1.4,1-3.1,1.5-5,1.5c-1.9,0-4-0.5-6.4-1.5c-4.2-1.8-6.8-3.8-7.8-6.1C75.1,489.5,75.1,487,75.9,484.4z"
		/>
	
		<rect x="95.1" y="488.5" transform="matrix(0.3454 -0.9385 0.9385 0.3454 -391.2583 424.4362)" class="st3" width="27" height="8.4"/>
	
		<rect x="95.1" y="488.5" transform="matrix(0.3454 -0.9385 0.9385 0.3454 -391.2583 424.4362)" class="st4" width="27" height="8.4"/>
	<path class="st3" d="M134.6,504.1l6.3,4.3c-1.1,1.8-2.4,3.2-3.8,4.2c-1.4,1-3,1.6-4.7,1.8c-1.7,0.2-3.7-0.1-6-0.8
		c-2.8-0.9-4.9-2-6.5-3.4c-1.5-1.4-2.6-3.3-3.2-5.8c-0.6-2.5-0.4-5.3,0.6-8.5c1.4-4.3,3.5-7.2,6.5-8.7c3-1.6,6.6-1.7,10.7-0.4
		c3.2,1,5.6,2.5,7,4.4c1.4,1.9,2.2,4.4,2.2,7.4l-7.5-0.7c0-0.9-0.1-1.5-0.2-2c-0.2-0.8-0.6-1.4-1.2-1.9c-0.5-0.5-1.2-0.9-2-1.2
		c-1.8-0.6-3.4-0.3-4.8,0.9c-1.1,0.8-2,2.4-2.7,4.7c-0.9,2.8-1.1,4.9-0.6,6.3c0.5,1.3,1.6,2.3,3.1,2.8c1.5,0.5,2.8,0.4,3.9-0.2
		C132.8,506.7,133.8,505.6,134.6,504.1"/>
	<path class="st4" d="M134.6,504.1l6.3,4.3c-1.1,1.8-2.4,3.2-3.8,4.2c-1.4,1-3,1.6-4.7,1.8c-1.7,0.2-3.7-0.1-6-0.8
		c-2.8-0.9-4.9-2-6.5-3.4c-1.5-1.4-2.6-3.3-3.2-5.8c-0.6-2.5-0.4-5.3,0.6-8.5c1.4-4.3,3.5-7.2,6.5-8.7c3-1.6,6.6-1.7,10.7-0.4
		c3.2,1,5.6,2.5,7,4.4c1.4,1.9,2.2,4.4,2.2,7.4l-7.5-0.7c0-0.9-0.1-1.5-0.2-2c-0.2-0.8-0.6-1.4-1.2-1.9c-0.5-0.5-1.2-0.9-2-1.2
		c-1.8-0.6-3.4-0.3-4.8,0.9c-1.1,0.8-2,2.4-2.7,4.7c-0.9,2.8-1.1,4.9-0.6,6.3c0.5,1.3,1.6,2.3,3.1,2.8c1.5,0.5,2.8,0.4,3.9-0.2
		C132.8,506.7,133.8,505.6,134.6,504.1z"/>
	<polygon class="st3" points="150.3,492.1 158.4,494.3 151.2,520.3 143.2,518.1 	"/>
	<polygon class="st4" points="150.3,492.1 158.4,494.3 151.2,520.3 143.2,518.1 	"/>
	<path class="st3" d="M158.2,513l7.8,1.4c-0.1,1.3,0,2.3,0.3,3.1c0.6,1.3,1.6,2.1,3.2,2.5c1.2,0.3,2.1,0.2,2.9-0.2
		c0.8-0.4,1.2-1,1.4-1.7c0.2-0.7,0-1.4-0.5-2c-0.5-0.7-1.7-1.5-3.8-2.5c-3.4-1.6-5.7-3.3-6.9-5c-1.2-1.7-1.6-3.6-1.1-5.6
		c0.3-1.4,1-2.5,2.1-3.6c1.1-1,2.5-1.7,4.2-2c1.7-0.3,4-0.1,6.7,0.5c3.3,0.8,5.8,2,7.2,3.7c1.5,1.7,2,3.9,1.7,6.7l-7.8-1.4
		c0.1-1.2-0.1-2.2-0.7-2.9c-0.5-0.7-1.4-1.2-2.5-1.4c-0.9-0.2-1.7-0.2-2.3,0.1c-0.6,0.3-0.9,0.7-1.1,1.3c-0.1,0.4,0,0.8,0.3,1.3
		c0.3,0.4,1.1,1,2.5,1.6c3.4,1.6,5.7,3,7.1,4.1c1.4,1.1,2.2,2.4,2.7,3.7c0.4,1.3,0.5,2.7,0.1,4.1c-0.4,1.7-1.2,3.1-2.5,4.3
		c-1.3,1.2-2.8,2-4.7,2.3c-1.8,0.3-4.1,0.2-6.6-0.4c-4.5-1.1-7.4-2.7-8.7-4.8C158.2,518.1,157.8,515.7,158.2,513"/>
	<path class="st4" d="M158.2,513l7.8,1.4c-0.1,1.3,0,2.3,0.3,3.1c0.6,1.3,1.6,2.1,3.2,2.5c1.2,0.3,2.1,0.2,2.9-0.2
		c0.8-0.4,1.2-1,1.4-1.7c0.2-0.7,0-1.4-0.5-2c-0.5-0.7-1.7-1.5-3.8-2.5c-3.4-1.6-5.7-3.3-6.9-5c-1.2-1.7-1.6-3.6-1.1-5.6
		c0.3-1.4,1-2.5,2.1-3.6c1.1-1,2.5-1.7,4.2-2c1.7-0.3,4-0.1,6.7,0.5c3.3,0.8,5.8,2,7.2,3.7c1.5,1.7,2,3.9,1.7,6.7l-7.8-1.4
		c0.1-1.2-0.1-2.2-0.7-2.9c-0.5-0.7-1.4-1.2-2.5-1.4c-0.9-0.2-1.7-0.2-2.3,0.1c-0.6,0.3-0.9,0.7-1.1,1.3c-0.1,0.4,0,0.8,0.3,1.3
		c0.3,0.4,1.1,1,2.5,1.6c3.4,1.6,5.7,3,7.1,4.1c1.4,1.1,2.2,2.4,2.7,3.7c0.4,1.3,0.5,2.7,0.1,4.1c-0.4,1.7-1.2,3.1-2.5,4.3
		c-1.3,1.2-2.8,2-4.7,2.3c-1.8,0.3-4.1,0.2-6.6-0.4c-4.5-1.1-7.4-2.7-8.7-4.8C158.2,518.1,157.8,515.7,158.2,513z"/>
	<polygon class="st3" points="188,501.5 212.9,506.3 211.6,512.8 203.3,511.2 199.4,531.2 191.2,529.6 195.1,509.6 186.7,508 	"/>
	<polygon class="st4" points="188,501.5 212.9,506.3 211.6,512.8 203.3,511.2 199.4,531.2 191.2,529.6 195.1,509.6 186.7,508 	"/>
	<path class="st3" d="M211.1,524.3l7.9,0.7c0,1.3,0.2,2.3,0.6,3.1c0.7,1.2,1.8,1.9,3.4,2.2c1.2,0.2,2.1,0,2.9-0.4
		c0.7-0.5,1.1-1.1,1.2-1.8c0.1-0.7-0.1-1.4-0.6-2c-0.5-0.6-1.9-1.4-4-2.2c-3.5-1.4-5.9-2.8-7.3-4.4c-1.4-1.6-1.9-3.4-1.6-5.5
		c0.2-1.4,0.8-2.6,1.8-3.7c1-1.1,2.3-1.9,4-2.3c1.7-0.5,3.9-0.5,6.7-0.1c3.4,0.5,5.9,1.5,7.5,3.1s2.4,3.7,2.3,6.5l-7.8-0.7
		c0-1.2-0.3-2.2-0.9-2.8c-0.6-0.6-1.4-1.1-2.6-1.2c-1-0.1-1.7,0-2.3,0.3c-0.5,0.3-0.9,0.8-1,1.4c-0.1,0.4,0.1,0.8,0.4,1.2
		c0.3,0.4,1.2,0.9,2.6,1.4c3.5,1.3,6,2.5,7.4,3.5c1.4,1,2.4,2.2,3,3.5c0.5,1.3,0.7,2.7,0.5,4.1c-0.3,1.7-1,3.2-2.1,4.5
		c-1.2,1.3-2.7,2.2-4.5,2.7c-1.8,0.5-4,0.5-6.6,0.2c-4.5-0.7-7.6-2-9-4C211.6,529.4,211,527,211.1,524.3"/>
	<path class="st4" d="M211.1,524.3l7.9,0.7c0,1.3,0.2,2.3,0.6,3.1c0.7,1.2,1.8,1.9,3.4,2.2c1.2,0.2,2.1,0,2.9-0.4
		c0.7-0.5,1.1-1.1,1.2-1.8c0.1-0.7-0.1-1.4-0.6-2c-0.5-0.6-1.9-1.4-4-2.2c-3.5-1.4-5.9-2.8-7.3-4.4c-1.4-1.6-1.9-3.4-1.6-5.5
		c0.2-1.4,0.8-2.6,1.8-3.7c1-1.1,2.3-1.9,4-2.3c1.7-0.5,3.9-0.5,6.7-0.1c3.4,0.5,5.9,1.5,7.5,3.1s2.4,3.7,2.3,6.5l-7.8-0.7
		c0-1.2-0.3-2.2-0.9-2.8c-0.6-0.6-1.4-1.1-2.6-1.2c-1-0.1-1.7,0-2.3,0.3c-0.5,0.3-0.9,0.8-1,1.4c-0.1,0.4,0.1,0.8,0.4,1.2
		c0.3,0.4,1.2,0.9,2.6,1.4c3.5,1.3,6,2.5,7.4,3.5c1.4,1,2.4,2.2,3,3.5c0.5,1.3,0.7,2.7,0.5,4.1c-0.3,1.7-1,3.2-2.1,4.5
		c-1.2,1.3-2.7,2.2-4.5,2.7c-1.8,0.5-4,0.5-6.6,0.2c-4.5-0.7-7.6-2-9-4C211.6,529.4,211,527,211.1,524.3z"/>
	<path class="st3" d="M267.3,535.7l-9.4-0.9l-1.7,4.3l-8.5-0.8l12.5-26l9.1,0.8l7.7,27.8l-8.7-0.8L267.3,535.7z M266.1,529.8
		l-2.1-9.9l-3.8,9.4L266.1,529.8z"/>
	<path class="st4" d="M267.3,535.7l-9.4-0.9l-1.7,4.3l-8.5-0.8l12.5-26l9.1,0.8l7.7,27.8l-8.7-0.8L267.3,535.7z M266.1,529.8
		l-2.1-9.9l-3.8,9.4L266.1,529.8z"/>
	<polygon class="st3" points="280.7,514.2 288.5,514.6 297.9,530 298.6,515.1 306.5,515.5 305.2,542.4 297.3,542.1 287.9,526.8 
		287.2,541.6 279.4,541.2 	"/>
	<polygon class="st4" points="280.7,514.2 288.5,514.6 297.9,530 298.6,515.1 306.5,515.5 305.2,542.4 297.3,542.1 287.9,526.8 
		287.2,541.6 279.4,541.2 	"/>
	<path class="st3" d="M310.7,515.6l12.4,0.1c2.4,0,4.4,0.4,5.9,1c1.5,0.7,2.7,1.6,3.7,2.9c1,1.2,1.7,2.7,2.1,4.3
		c0.4,1.6,0.6,3.4,0.6,5.2c0,2.9-0.4,5.1-1,6.7c-0.7,1.6-1.6,2.9-2.8,4c-1.2,1.1-2.4,1.8-3.8,2.1c-1.8,0.5-3.5,0.7-5,0.7l-12.4-0.1
		L310.7,515.6z M319,521.7l-0.1,14.7l2,0c1.7,0,3-0.2,3.7-0.6c0.7-0.4,1.3-1.1,1.7-2c0.4-1,0.6-2.5,0.7-4.7c0-2.9-0.4-4.8-1.4-5.9
		c-0.9-1.1-2.5-1.6-4.6-1.6L319,521.7z"/>
	<path class="st4" d="M310.7,515.6l12.4,0.1c2.4,0,4.4,0.4,5.9,1c1.5,0.7,2.7,1.6,3.7,2.9c1,1.2,1.7,2.7,2.1,4.3
		c0.4,1.6,0.6,3.4,0.6,5.2c0,2.9-0.4,5.1-1,6.7c-0.7,1.6-1.6,2.9-2.8,4c-1.2,1.1-2.4,1.8-3.8,2.1c-1.8,0.5-3.5,0.7-5,0.7l-12.4-0.1
		L310.7,515.6z M319,521.7l-0.1,14.7l2,0c1.7,0,3-0.2,3.7-0.6c0.7-0.4,1.3-1.1,1.7-2c0.4-1,0.6-2.5,0.7-4.7c0-2.9-0.4-4.8-1.4-5.9
		c-0.9-1.1-2.5-1.6-4.6-1.6L319,521.7z"/>
	<polygon class="st3" points="347.5,515.6 355.4,515.1 359.2,530 362.5,514.7 370.3,514.2 375.4,529 377.4,513.8 385.2,513.3 
		380.9,540.6 372.7,541.1 367,524.4 363.3,541.7 355.1,542.2 	"/>
	<polygon class="st4" points="347.5,515.6 355.4,515.1 359.2,530 362.5,514.7 370.3,514.2 375.4,529 377.4,513.8 385.2,513.3 
		380.9,540.6 372.7,541.1 367,524.4 363.3,541.7 355.1,542.2 	"/>
	<polygon class="st3" points="386.4,513.1 408.6,510.7 409.2,516.4 395.3,517.9 395.7,522.2 408.6,520.8 409.2,526.3 396.3,527.6 
		396.9,532.9 411.2,531.4 411.9,537.5 389.2,539.9 	"/>
	<polygon class="st4" points="386.4,513.1 408.6,510.7 409.2,516.4 395.3,517.9 395.7,522.2 408.6,520.8 409.2,526.3 396.3,527.6 
		396.9,532.9 411.2,531.4 411.9,537.5 389.2,539.9 	"/>
	<polygon class="st3" points="412.7,510.1 420.9,508.9 423.9,529 436.8,527.1 437.8,533.7 416.7,536.8 	"/>
	<polygon class="st4" points="412.7,510.1 420.9,508.9 423.9,529 436.8,527.1 437.8,533.7 416.7,536.8 	"/>
	<polygon class="st3" points="437.1,506.4 445.3,504.8 449.2,524.8 461.9,522.3 463.2,528.9 442.2,532.9 	"/>
	<polygon class="st4" points="437.1,506.4 445.3,504.8 449.2,524.8 461.9,522.3 463.2,528.9 442.2,532.9 	"/>
	<polygon class="st3" points="473.4,498.9 481.4,496.7 486.6,516.4 499.2,513.1 500.9,519.5 480.2,525 	"/>
	<polygon class="st4" points="473.4,498.9 481.4,496.7 486.6,516.4 499.2,513.1 500.9,519.5 480.2,525 	"/>
	<path class="st3" d="M499.7,505.9c-1.4-4.2-1.2-7.8,0.3-10.9c1.6-3.1,4.5-5.3,8.6-6.7c4.3-1.4,7.9-1.3,11,0.3
		c3.1,1.5,5.2,4.4,6.6,8.5c1,3,1.3,5.6,0.9,7.9c-0.4,2.2-1.4,4.2-2.9,5.9c-1.6,1.7-3.8,3-6.6,3.9c-2.9,0.9-5.4,1.3-7.6,0.9
		c-2.2-0.3-4.2-1.3-6-2.9C502,511.2,500.6,508.9,499.7,505.9 M507.6,503.4c0.8,2.6,1.9,4.3,3.3,5.1c1.3,0.8,2.8,1,4.5,0.4
		c1.7-0.6,2.9-1.5,3.4-2.9c0.6-1.4,0.4-3.6-0.5-6.4c-0.8-2.4-1.8-4-3.2-4.8c-1.3-0.8-2.8-0.9-4.5-0.4c-1.6,0.5-2.7,1.5-3.3,2.9
		C506.6,498.8,506.8,500.8,507.6,503.4"/>
	<path class="st4" d="M499.7,505.9c-1.4-4.2-1.2-7.8,0.3-10.9c1.6-3.1,4.5-5.3,8.6-6.7c4.3-1.4,7.9-1.3,11,0.3
		c3.1,1.5,5.2,4.4,6.6,8.5c1,3,1.3,5.6,0.9,7.9c-0.4,2.2-1.4,4.2-2.9,5.9c-1.6,1.7-3.8,3-6.6,3.9c-2.9,0.9-5.4,1.3-7.6,0.9
		c-2.2-0.3-4.2-1.3-6-2.9C502,511.2,500.6,508.9,499.7,505.9z M507.6,503.4c0.8,2.6,1.9,4.3,3.3,5.1c1.3,0.8,2.8,1,4.5,0.4
		c1.7-0.6,2.9-1.5,3.4-2.9c0.6-1.4,0.4-3.6-0.5-6.4c-0.8-2.4-1.8-4-3.2-4.8c-1.3-0.8-2.8-0.9-4.5-0.4c-1.6,0.5-2.7,1.5-3.3,2.9
		C506.6,498.8,506.8,500.8,507.6,503.4z"/>
	<path class="st3" d="M544.7,494.1l-2.1-5.2l12-4.8l4.3,10.7c-1.7,2.5-3.3,4.4-4.8,5.6c-1.5,1.3-3.5,2.4-5.9,3.4
		c-3,1.2-5.6,1.7-7.9,1.4c-2.3-0.3-4.3-1.2-6.2-2.8c-1.8-1.6-3.3-3.7-4.3-6.3c-1.1-2.7-1.5-5.3-1.2-7.8c0.3-2.5,1.4-4.7,3.1-6.6
		c1.4-1.5,3.5-2.8,6.4-4c2.8-1.1,4.9-1.7,6.5-1.7c1.6,0,3,0.3,4.4,1c1.3,0.7,2.5,1.8,3.6,3.2l-6.9,4.3c-0.7-0.8-1.5-1.3-2.4-1.5
		c-0.9-0.2-2-0.1-3.1,0.4c-1.7,0.7-2.8,1.8-3.3,3.4c-0.5,1.6-0.3,3.7,0.7,6.2c1.1,2.7,2.4,4.4,3.9,5.2c1.5,0.8,3.1,0.8,5,0
		c0.9-0.3,1.6-0.8,2.3-1.4c0.7-0.6,1.4-1.4,2.2-2.4l-1-2.4L544.7,494.1z"/>
	<path class="st4" d="M544.7,494.1l-2.1-5.2l12-4.8l4.3,10.7c-1.7,2.5-3.3,4.4-4.8,5.6c-1.5,1.3-3.5,2.4-5.9,3.4
		c-3,1.2-5.6,1.7-7.9,1.4c-2.3-0.3-4.3-1.2-6.2-2.8c-1.8-1.6-3.3-3.7-4.3-6.3c-1.1-2.7-1.5-5.3-1.2-7.8c0.3-2.5,1.4-4.7,3.1-6.6
		c1.4-1.5,3.5-2.8,6.4-4c2.8-1.1,4.9-1.7,6.5-1.7c1.6,0,3,0.3,4.4,1c1.3,0.7,2.5,1.8,3.6,3.2l-6.9,4.3c-0.7-0.8-1.5-1.3-2.4-1.5
		c-0.9-0.2-2-0.1-3.1,0.4c-1.7,0.7-2.8,1.8-3.3,3.4c-0.5,1.6-0.3,3.7,0.7,6.2c1.1,2.7,2.4,4.4,3.9,5.2c1.5,0.8,3.1,0.8,5,0
		c0.9-0.3,1.6-0.8,2.3-1.4c0.7-0.6,1.4-1.4,2.2-2.4l-1-2.4L544.7,494.1z"/>
	<path class="st3" d="M590.3,478.5l-8.3,4.5l0.9,4.5l-7.5,4l-3.8-28.6l8-4.3l21.7,19l-7.7,4.1L590.3,478.5z M586.1,474.1l-7.2-7.2
		l2,9.9L586.1,474.1z"/>
	<path class="st4" d="M590.3,478.5l-8.3,4.5l0.9,4.5l-7.5,4l-3.8-28.6l8-4.3l21.7,19l-7.7,4.1L590.3,478.5z M586.1,474.1l-7.2-7.2
		l2,9.9L586.1,474.1z"/>
	<polygon class="st3" points="590.1,452.9 596.6,448.6 613.3,455.5 605.1,443 611.7,438.7 626.5,461.3 619.9,465.6 603.4,458.8 
		611.5,471.1 604.9,475.4 	"/>
	<polygon class="st4" points="590.1,452.9 596.6,448.6 613.3,455.5 605.1,443 611.7,438.7 626.5,461.3 619.9,465.6 603.4,458.8 
		611.5,471.1 604.9,475.4 	"/>
	<path class="st3" d="M642.1,443.3l-7.3,6l1.8,4.3l-6.6,5.4l-9.2-27.3l7.1-5.7l24.9,14.5l-6.8,5.5L642.1,443.3z M637.1,439.8
		l-8.4-5.6l3.8,9.4L637.1,439.8z"/>
	<path class="st4" d="M642.1,443.3l-7.3,6l1.8,4.3l-6.6,5.4l-9.2-27.3l7.1-5.7l24.9,14.5l-6.8,5.5L642.1,443.3z M637.1,439.8
		l-8.4-5.6l3.8,9.4L637.1,439.8z"/>
	<polygon class="st3" points="636.7,418.2 642.5,412.3 657,426.6 666.2,417.4 670.9,422 655.8,437.2 	"/>
	<polygon class="st4" points="636.7,418.2 642.5,412.3 657,426.6 666.2,417.4 670.9,422 655.8,437.2 	"/>
	<polygon class="st3" points="649.9,405.3 655.7,398.1 666.2,399.6 662.5,389.6 668.3,382.4 673.9,400.4 682.8,407.5 677.5,414 
		668.7,407 	"/>
	<polygon class="st4" points="649.9,405.3 655.7,398.1 666.2,399.6 662.5,389.6 668.3,382.4 673.9,400.4 682.8,407.5 677.5,414 
		668.7,407 	"/>
	<path class="st3" d="M682.6,393.2l3.7-7c1.2,0.5,2.2,0.7,3.1,0.6c1.4-0.2,2.5-0.9,3.3-2.3c0.6-1,0.9-1.9,0.7-2.8
		c-0.1-0.8-0.5-1.5-1.1-1.8c-0.6-0.4-1.3-0.4-2.1-0.2c-0.8,0.2-2,1.2-3.6,2.8c-2.6,2.7-4.9,4.3-6.9,4.9c-2,0.6-3.9,0.4-5.7-0.7
		c-1.2-0.7-2.1-1.7-2.7-3.1c-0.6-1.3-0.8-2.9-0.6-4.6c0.2-1.7,1.1-3.8,2.6-6.2c1.8-2.9,3.7-4.8,5.8-5.7c2-0.9,4.3-0.7,6.9,0.5
		l-3.7,6.9c-1.1-0.5-2.1-0.6-2.9-0.3c-0.8,0.3-1.5,0.9-2.2,1.9c-0.5,0.8-0.7,1.6-0.6,2.2c0.1,0.6,0.4,1.1,0.9,1.4
		c0.4,0.2,0.8,0.3,1.3,0.1c0.5-0.1,1.3-0.8,2.3-1.9c2.6-2.7,4.6-4.5,6.1-5.4c1.5-0.9,3-1.4,4.4-1.4c1.4,0,2.7,0.4,4,1.2
		c1.5,0.9,2.6,2.1,3.3,3.7c0.7,1.6,1,3.3,0.7,5.2s-1.1,3.9-2.4,6.1c-2.4,3.9-4.8,6.2-7.3,6.7C687.5,394.7,685,394.4,682.6,393.2"/>
	<path class="st4" d="M682.6,393.2l3.7-7c1.2,0.5,2.2,0.7,3.1,0.6c1.4-0.2,2.5-0.9,3.3-2.3c0.6-1,0.9-1.9,0.7-2.8
		c-0.1-0.8-0.5-1.5-1.1-1.8c-0.6-0.4-1.3-0.4-2.1-0.2c-0.8,0.2-2,1.2-3.6,2.8c-2.6,2.7-4.9,4.3-6.9,4.9c-2,0.6-3.9,0.4-5.7-0.7
		c-1.2-0.7-2.1-1.7-2.7-3.1c-0.6-1.3-0.8-2.9-0.6-4.6c0.2-1.7,1.1-3.8,2.6-6.2c1.8-2.9,3.7-4.8,5.8-5.7c2-0.9,4.3-0.7,6.9,0.5
		l-3.7,6.9c-1.1-0.5-2.1-0.6-2.9-0.3c-0.8,0.3-1.5,0.9-2.2,1.9c-0.5,0.8-0.7,1.6-0.6,2.2c0.1,0.6,0.4,1.1,0.9,1.4
		c0.4,0.2,0.8,0.3,1.3,0.1c0.5-0.1,1.3-0.8,2.3-1.9c2.6-2.7,4.6-4.5,6.1-5.4c1.5-0.9,3-1.4,4.4-1.4c1.4,0,2.7,0.4,4,1.2
		c1.5,0.9,2.6,2.1,3.3,3.7c0.7,1.6,1,3.3,0.7,5.2s-1.1,3.9-2.4,6.1c-2.4,3.9-4.8,6.2-7.3,6.7C687.5,394.7,685,394.4,682.6,393.2z"/>
	<polygon class="st3" points="680.5,362 690.8,338.9 696.9,341.6 693.4,349.3 712,357.6 708.7,365.2 690.1,357 686.6,364.7 	"/>
	<polygon class="st4" points="680.5,362 690.8,338.9 696.9,341.6 693.4,349.3 712,357.6 708.7,365.2 690.1,357 686.6,364.7 	"/>
	<path class="st3" d="M708.4,343l1.7-7.8c1.3,0.2,2.3,0.1,3.1-0.2c1.3-0.5,2.1-1.6,2.6-3.1c0.3-1.1,0.3-2.1,0-2.9
		c-0.4-0.8-0.9-1.3-1.6-1.5c-0.7-0.2-1.4-0.1-2.1,0.4c-0.7,0.4-1.6,1.7-2.7,3.7c-1.8,3.3-3.6,5.5-5.3,6.6c-1.7,1.1-3.6,1.4-5.7,0.8
		c-1.3-0.4-2.5-1.1-3.4-2.3c-1-1.1-1.6-2.5-1.8-4.3c-0.2-1.7,0.1-4,0.8-6.7c1-3.3,2.3-5.7,4.1-7c1.7-1.4,4-1.8,6.8-1.4l-1.7,7.7
		c-1.2-0.1-2.2,0-2.9,0.5c-0.7,0.5-1.2,1.3-1.6,2.4c-0.3,0.9-0.3,1.7,0,2.3s0.7,1,1.2,1.1c0.4,0.1,0.8,0,1.3-0.3
		c0.5-0.3,1-1.1,1.7-2.4c1.8-3.3,3.3-5.6,4.5-6.9c1.2-1.3,2.5-2.1,3.8-2.5c1.3-0.4,2.7-0.3,4.1,0.1c1.7,0.5,3.1,1.4,4.2,2.7
		c1.1,1.3,1.8,2.9,2.1,4.8c0.2,1.9,0,4-0.7,6.6c-1.3,4.4-3,7.2-5.2,8.4C713.6,343.2,711.1,343.5,708.4,343"/>
	<path class="st4" d="M708.4,343l1.7-7.8c1.3,0.2,2.3,0.1,3.1-0.2c1.3-0.5,2.1-1.6,2.6-3.1c0.3-1.1,0.3-2.1,0-2.9
		c-0.4-0.8-0.9-1.3-1.6-1.5c-0.7-0.2-1.4-0.1-2.1,0.4c-0.7,0.4-1.6,1.7-2.7,3.7c-1.8,3.3-3.6,5.5-5.3,6.6c-1.7,1.1-3.6,1.4-5.7,0.8
		c-1.3-0.4-2.5-1.1-3.4-2.3c-1-1.1-1.6-2.5-1.8-4.3c-0.2-1.7,0.1-4,0.8-6.7c1-3.3,2.3-5.7,4.1-7c1.7-1.4,4-1.8,6.8-1.4l-1.7,7.7
		c-1.2-0.1-2.2,0-2.9,0.5c-0.7,0.5-1.2,1.3-1.6,2.4c-0.3,0.9-0.3,1.7,0,2.3s0.7,1,1.2,1.1c0.4,0.1,0.8,0,1.3-0.3
		c0.5-0.3,1-1.1,1.7-2.4c1.8-3.3,3.3-5.6,4.5-6.9c1.2-1.3,2.5-2.1,3.8-2.5c1.3-0.4,2.7-0.3,4.1,0.1c1.7,0.5,3.1,1.4,4.2,2.7
		c1.1,1.3,1.8,2.9,2.1,4.8c0.2,1.9,0,4-0.7,6.6c-1.3,4.4-3,7.2-5.2,8.4C713.6,343.2,711.1,343.5,708.4,343z"/>
</g>
</svg>
