<?xml version="1.0" standalone="no"?>
<!DOCTYPE svg PUBLIC "-//W3C//DTD SVG 20010904//EN"
 "http://www.w3.org/TR/2001/REC-SVG-20010904/DTD/svg10.dtd">
<svg version="1.0" xmlns="http://www.w3.org/2000/svg"
 width="700.000000pt" height="700.000000pt" viewBox="0 0 700.000000 700.000000"
 preserveAspectRatio="xMidYMid meet">
<metadata>
Created by potrace 1.11, written by Peter Selinger 2001-2013
</metadata>
<g transform="translate(0.000000,700.000000) scale(0.100000,-0.100000)"
fill="#000000" stroke="none">
<path d="M3319 6956 c-2 -2 -47 -7 -99 -10 -83 -6 -317 -41 -405 -60 -188 -42
-489 -134 -579 -177 -22 -11 -43 -19 -47 -19 -17 0 -286 -133 -387 -191 -802
-461 -1391 -1219 -1636 -2104 -27 -100 -82 -356 -90 -424 -3 -25 -8 -63 -11
-85 -3 -23 -8 -59 -11 -81 -10 -69 -12 -577 -4 -640 5 -33 11 -87 15 -120 48
-454 225 -972 476 -1390 59 -98 207 -312 254 -367 11 -13 42 -51 70 -83 358
-429 849 -783 1376 -993 168 -67 391 -137 499 -157 14 -3 43 -10 65 -15 142
-36 187 -39 725 -39 492 -1 543 0 640 18 577 109 1107 352 1565 718 101 81
365 334 446 428 207 241 360 476 504 770 128 261 228 555 280 815 9 47 20 103
25 125 5 22 9 281 10 575 0 492 -1 544 -20 645 -96 530 -317 1028 -663 1494
-23 31 -44 58 -47 61 -3 3 -32 37 -65 75 -125 147 -352 371 -429 425 -12 8
-25 19 -31 26 -5 6 -55 45 -110 86 -323 242 -667 417 -1060 542 -79 25 -291
80 -350 91 -102 18 -191 32 -265 40 -25 3 -58 8 -75 11 -34 5 -561 15 -566 10z
m496 -151 c44 -3 91 -7 105 -9 14 -3 48 -7 75 -11 75 -9 178 -25 184 -29 3 -2
24 -7 46 -10 252 -40 711 -212 957 -358 29 -17 73 -42 98 -56 81 -45 299 -199
380 -268 182 -156 332 -303 445 -439 37 -44 75 -89 84 -100 35 -42 160 -224
216 -315 185 -300 353 -718 414 -1030 6 -30 14 -66 17 -80 10 -50 24 -136 30
-185 3 -27 8 -61 10 -75 23 -135 23 -604 -1 -770 -2 -14 -6 -47 -10 -75 -11
-89 -66 -347 -96 -453 -73 -251 -173 -494 -292 -707 -45 -81 -212 -343 -226
-355 -3 -3 -33 -41 -67 -85 -174 -229 -441 -483 -704 -672 -346 -248 -804
-452 -1210 -538 -109 -23 -175 -35 -225 -41 -33 -3 -62 -8 -65 -9 -3 -2 -41
-6 -85 -10 -44 -4 -90 -8 -102 -10 -21 -3 -143 -7 -170 -6 -10 1 -13 94 -13
430 l0 429 28 -1 c48 -1 207 12 258 22 27 5 69 12 94 16 90 13 310 75 431 121
212 80 404 184 589 317 89 64 105 78 204 166 433 385 717 923 802 1516 20 143
26 416 11 575 -7 76 -27 211 -42 280 -4 14 -8 36 -11 50 -3 14 -21 79 -40 145
-93 315 -249 608 -474 888 -29 35 -62 47 -96 32 -31 -13 -44 -32 -44 -65 0
-10 35 -65 78 -122 120 -158 138 -187 238 -373 100 -187 197 -481 229 -695 3
-20 7 -46 10 -59 9 -48 19 -210 19 -316 -1 -381 -81 -719 -251 -1060 -58 -116
-186 -326 -224 -365 -8 -8 -33 -40 -56 -70 -50 -65 -204 -224 -288 -296 -286
-246 -624 -417 -992 -504 -120 -29 -132 -31 -177 -36 -22 -3 -42 -7 -46 -9 -3
-2 -50 -6 -105 -10 -55 -4 -110 -8 -123 -10 l-22 -4 2 431 3 431 40 3 c37 3
130 17 200 29 137 25 378 126 506 212 84 57 98 71 104 106 6 30 -34 77 -66 77
-13 0 -59 -24 -103 -54 -195 -129 -383 -198 -613 -224 l-73 -8 0 361 0 362 67
12 c208 38 405 217 475 431 29 92 33 256 8 348 -10 37 -29 90 -42 117 -77 166
-236 297 -413 341 -38 9 -76 18 -82 20 -10 3 -13 84 -13 362 l0 360 48 -5
c419 -40 789 -264 1020 -617 107 -164 183 -374 209 -576 8 -61 8 -231 0 -305
-15 -152 -67 -326 -138 -467 -22 -43 -39 -91 -39 -107 0 -57 77 -82 118 -38
48 51 152 312 181 458 18 86 21 124 25 264 9 324 -76 613 -262 884 -133 195
-298 346 -500 457 -167 93 -379 163 -538 179 -38 4 -80 8 -94 10 l-25 2 -3
430 -2 431 56 -4 c72 -4 172 -13 210 -20 366 -63 553 -130 901 -325 49 -28 90
-20 111 23 18 38 1 72 -55 108 -80 52 -342 176 -453 214 -89 32 -262 82 -310
91 -57 10 -90 15 -125 20 -22 4 -47 8 -55 10 -18 5 -137 17 -205 20 -27 2 -56
3 -62 4 -10 1 -13 94 -13 430 l0 428 63 -3 c34 -2 98 -6 142 -9z m-1200 -1018
c118 -50 209 -144 256 -266 17 -44 22 -78 22 -161 1 -161 -28 -202 -208 -293
-207 -104 -278 -197 -300 -393 -7 -69 -34 -120 -68 -133 -36 -14 -143 -3 -191
19 -165 78 -257 323 -222 595 37 287 165 536 319 617 70 37 116 46 227 43 86
-2 116 -7 165 -28z m-2059 -1062 c64 -132 165 -269 265 -362 299 -275 353
-349 363 -499 9 -118 48 -214 120 -292 41 -44 149 -124 264 -196 107 -67 168
-122 178 -160 3 -15 4 -53 2 -84 -12 -139 -124 -276 -290 -356 -139 -66 -259
-92 -475 -101 -154 -7 -201 -12 -322 -36 -95 -19 -278 -76 -324 -101 -10 -5
-21 -8 -23 -5 -5 4 -60 224 -68 272 -9 49 -34 207 -40 251 -28 202 -28 592 -1
799 12 91 15 112 19 135 3 14 10 56 16 93 25 159 110 450 187 637 48 117 65
148 71 130 2 -8 28 -64 58 -125z m3197 -814 c138 -66 246 -204 274 -349 15
-73 7 -194 -16 -261 -27 -77 -85 -166 -143 -216 -50 -43 -168 -103 -221 -112
l-37 -6 0 493 0 493 39 -6 c21 -2 68 -19 104 -36z m-285 -1891 l0 -1570 -41
29 c-51 35 -128 115 -186 195 -70 94 -154 290 -243 561 -85 262 -174 440 -304
610 -150 196 -225 403 -225 621 0 272 156 493 431 605 182 74 285 139 383 243
54 57 123 157 158 229 13 26 24 47 25 47 1 0 2 -706 2 -1570z"/>
</g>
</svg>
